<svg xmlns="http://www.w3.org/2000/svg" viewBox="0 0 160 24" fill="none" class="w-auto h-6"><g transform="translate(2.865 29.5) scale(.69936)"><path stroke="#323744" stroke-width=".886" stroke-linejoin="round" d="M22.677-39.73 36.95-25.473 22.694-11.199 8.42-25.456z"/><path d="m22.723-35.635-7.813 7.822 4.356 4.35a3.348 3.348 0 0 1 3.338-3.121 3.348 3.348 0 0 1 3.347 3.35 3.348 3.348 0 0 1 0 .011l4.594-4.6z" fill="#323744" fill-rule="evenodd" stroke="#323744" stroke-width=".485" stroke-linejoin="round"/><circle cx="17.07" cy="-25.134" r="3.348" fill="#323744" stroke="#323744" stroke-width=".67" stroke-linejoin="round"/><circle cx="28.384" cy="-25.134" r="3.348" fill="#323744" stroke="#323744" stroke-width=".67" stroke-linejoin="round"/><path d="m22.732-20-2.45 2.452 4.89.006.012-.01z" fill="#323744" fill-rule="evenodd" stroke="#323744" stroke-width=".152" stroke-linejoin="round"/><circle cx="19.3" cy="-23.318" r="3.348" fill="#fff"/><circle cx="26.071" cy="-23.318" r="3.348" fill="#fff"/><circle cx="22.733" cy="-28.603" r="3.348" fill="#fff"/><path d="m22.732-20 2.433-2.47-4.891.027-.011.011z" fill="#323744" fill-rule="evenodd" stroke="#323744" stroke-width=".152" stroke-linejoin="round"/><circle cx="21.277" cy="-23.359" r="1.44" fill="#323744"/><circle cx="24.102" cy="-23.323" r="1.44" fill="#323744"/><path d="m22.697-23.264-.925.926 1.847.002.005-.004z" fill="#323744" fill-rule="evenodd" stroke="#323744" stroke-width=".057" stroke-linejoin="round"/></g></svg>